<?xml version="1.0" encoding="UTF-8" standalone="no"?>
<!DOCTYPE svg PUBLIC "-//W3C//DTD SVG 1.1//EN" "http://www.w3.org/Graphics/SVG/1.1/DTD/svg11.dtd">
<svg width="100%" height="100%" viewBox="0 0 420 298" version="1.1" xmlns="http://www.w3.org/2000/svg" xmlns:xlink="http://www.w3.org/1999/xlink" xml:space="preserve" xmlns:serif="http://www.serif.com/" style="fill-rule:evenodd;clip-rule:evenodd;stroke-linecap:square;stroke-linejoin:round;stroke-miterlimit:1.5;">
    <g>
        <g>
            <g id="id2">
            </g>
        </g>
    </g>
    <g transform="matrix(1,0,0,1,0.102072,0.471831)">
        <path d="M200.462,123.74L200.462,162.834" style="fill:none;stroke:black;stroke-width:8.17px;"/>
        <g transform="matrix(6.12323e-17,-1,1,6.12323e-17,57.1745,343.749)">
            <path d="M200.462,123.74L200.462,162.834" style="fill:none;stroke:black;stroke-width:8.17px;"/>
        </g>
    </g>
    <g transform="matrix(1,0,0,1,0,-4)">
        <g transform="matrix(0.330426,0,0,0.330426,34.8973,94.4809)">
            <path d="M227.921,82.074L214.232,105.778L167.417,24.691L23.704,273.58L121.007,273.58C121.007,286.671 131.62,297.284 144.711,297.284L23.704,297.284C15.236,297.284 7.412,292.764 3.179,285.43C-1.054,278.096 -1.054,269.062 3.18,261.728L146.894,12.84C151.128,5.505 158.953,0.987 167.422,0.987C175.891,0.987 183.716,5.505 187.951,12.84L227.921,82.074Z" style="fill:rgb(7,197,142);fill-rule:nonzero;"/>
        </g>
        <g transform="matrix(0.330426,0,0,0.330426,34.8973,94.4809)">
            <path d="M331.664,261.728L241.61,105.778L227.921,82.074L214.232,105.778L124.188,261.728C119.954,269.062 119.953,278.096 124.187,285.43C128.42,292.764 136.243,297.284 144.711,297.284L311.111,297.284C319.581,297.284 327.408,292.769 331.643,285.434C335.879,278.1 335.879,269.063 331.644,261.728L331.664,261.728ZM144.711,273.58L227.921,129.481L311.111,273.58L144.711,273.58L144.711,273.58Z" style="fill:rgb(47,73,94);fill-rule:nonzero;"/>
        </g>
        <g transform="matrix(0.330426,0,0,0.330426,34.8973,94.4809)">
            <path d="M396.049,285.432C391.816,292.765 383.993,297.284 375.526,297.284L311.111,297.284C324.202,297.284 334.815,286.671 334.815,273.58L375.477,273.58L260.099,73.748L241.61,105.778L227.921,82.074L239.575,61.896C243.809,54.562 251.635,50.044 260.104,50.044C268.572,50.044 276.398,54.562 280.632,61.896L396.049,261.728C400.284,269.062 400.284,278.098 396.049,285.432L396.049,285.432Z" style="fill:rgb(16,135,117);fill-rule:nonzero;"/>
        </g>
    </g>
    <g transform="matrix(1,0,0,1,-94.3065,-55.7409)">
        <g transform="matrix(1,0,0,1,339.351,138.5)">
            <path d="M117,60C117,28.541 91.459,3 60,3C28.541,3 3,28.541 3,60C3,91.459 28.541,117 60,117C91.459,117 117,91.459 117,60Z" style="fill:none;stroke:rgb(106,218,171);stroke-width:6px;stroke-linecap:butt;stroke-linejoin:miter;stroke-miterlimit:4;"/>
        </g>
        <g transform="matrix(1,0,0,1,339.351,138.5)">
            <path d="M52.422,72.253C52.422,70.426 51.861,68.922 50.738,67.74C49.615,66.537 47.744,65.463 45.125,64.518C42.505,63.551 40.468,62.659 39.013,61.842C34.168,59.157 31.746,55.182 31.746,49.918C31.746,46.351 32.796,43.418 34.896,41.119C36.996,38.82 39.22,37.52 42.817,37.09L42.817,30L48.43,30L48.43,37.09C52.048,37.628 54.844,39.218 56.819,41.86C58.794,44.482 59.782,47.898 59.782,52.109L52.235,52.109C52.235,49.402 51.642,47.275 50.457,45.728C49.293,44.159 47.703,43.375 45.686,43.375C43.69,43.375 42.131,43.934 41.008,45.051C39.886,46.168 39.324,47.769 39.324,49.853C39.324,51.722 39.875,53.227 40.977,54.365C42.1,55.483 43.992,56.546 46.653,57.556C49.314,58.566 51.403,59.5 52.921,60.36C54.439,61.219 55.717,62.208 56.757,63.325C57.796,64.421 58.597,65.689 59.158,67.128C59.719,68.568 60,70.254 60,72.188C60,75.819 58.919,78.763 56.757,81.019C54.615,83.275 52.017,84.639 48.17,85.048L48.17,90L42.817,90L42.817,85.048C38.701,84.575 35.53,83.049 33.306,80.471C31.102,77.893 30,74.476 30,70.222L37.578,70.222C37.578,72.929 38.233,75.024 39.543,76.507C40.873,77.989 42.744,78.731 45.156,78.731C47.526,78.731 49.324,78.14 50.551,76.958C51.798,75.776 52.422,74.208 52.422,72.253Z" style="fill:rgb(106,218,171);fill-rule:nonzero;"/>
        </g>
        <g transform="matrix(1,0,0,1,339.351,138.5)">
            <rect x="70" y="55" width="5" height="15" style="fill:rgb(106,218,171);"/>
        </g>
        <g transform="matrix(1,0,0,1,339.351,138.5)">
            <rect x="80" y="50" width="5" height="25" style="fill:rgb(106,218,171);"/>
        </g>
        <g transform="matrix(1,0,0,1,339.351,138.5)">
            <rect x="90" y="45" width="5" height="35" style="fill:rgb(106,218,171);"/>
        </g>
    </g>
</svg>
